<?xml version="1.0" encoding="UTF-8"?>
<svg id="Layer_1" xmlns="http://www.w3.org/2000/svg" xmlns:xlink="http://www.w3.org/1999/xlink" version="1.1" viewBox="0 0 200 80">
  <!-- Generator: Adobe Illustrator 29.2.1, SVG Export Plug-In . SVG Version: 2.1.0 Build 116)  -->
  <defs>
    <style>
      .st0, .st1, .st2, .st3, .st4, .st5 {
        fill: none;
      }

      .st6 {
        fill: #fecaca;
      }

      .st6, .st7, .st8, .st9 {
        opacity: .5;
      }

      .st6, .st7, .st8, .st9, .st10 {
        isolation: isolate;
      }

      .st1 {
        stroke-linecap: round;
      }

      .st1, .st3 {
        stroke: #2563eb;
        stroke-width: 6px;
      }

      .st2 {
        stroke: #1e293b;
        stroke-width: 1.5px;
      }

      .st7 {
        fill: #fde68a;
      }

      .st11 {
        clip-path: url(#clippath-1);
      }

      .st4 {
        stroke: #f59e0b;
      }

      .st4, .st5 {
        stroke-width: 2px;
      }

      .st5 {
        stroke: #ef4444;
      }

      .st12 {
        fill: #1e293b;
      }

      .st8 {
        fill: #fcd34d;
      }

      .st9 {
        fill: #fca5a5;
      }

      .st13 {
        clip-path: url(#clippath);
      }

      .st10 {
        fill: #fff;
        opacity: .2;
      }
    </style>
    <clipPath id="clippath">
      <circle class="st0" cx="59.9" cy="39.7" r="32.1"/>
    </clipPath>
    <clipPath id="clippath-1">
      <circle class="st0" cx="140.2" cy="39.7" r="32.1"/>
    </clipPath>
  </defs>
  <circle class="st3" cx="59.9" cy="39.7" r="33.5"/>
  <circle class="st3" cx="140.2" cy="39.7" r="33.5"/>
  <path class="st3" d="M93.3,39.7c6.7-6.7,13.4-6.7,13.4,0"/>
  <path class="st1" d="M26.4,39.7c-6.7,0-13.4,6.7-13.4,13.4"/>
  <path class="st1" d="M173.6,39.7c6.7,0,13.4,6.7,13.4,13.4"/>
  <g class="st13">
    <g>
      <path class="st10" d="M39.8,19.6c8.9-4.5,17.8-4.5,26.8,0-8.9-2.7-17.8-2.7-26.8,0"/>
      <path class="st2" d="M39.8,43.7l9.4-4"/>
      <path class="st7" d="M49.2,39.7c10.7,0,17.4-20.1,26.8-21.4v6.7c-9.4,1.3-16.1,21.4-26.8,21.4v-6.7Z"/>
      <path class="st8" d="M49.2,39.7c10.7,0,17.4-17.4,26.8-18.7v1.3c-9.4,1.3-16.1,21.4-26.8,21.4v-4Z"/>
      <path class="st6" d="M49.2,39.7c10.7,0,17.4,20.1,26.8,21.4v-6.7c-9.4-1.3-16.1-21.4-26.8-21.4v6.7Z"/>
      <path class="st9" d="M49.2,39.7c10.7,0,17.4,17.4,26.8,18.7v-1.3c-9.4-1.3-16.1-21.4-26.8-21.4v4Z"/>
      <path class="st4" d="M49.2,39.7c10.7,0,17.4-18.7,26.8-20.1"/>
      <path class="st5" d="M49.2,39.7c10.7,0,17.4,18.7,26.8,20.1"/>
      <circle class="st12" cx="39.8" cy="43.7" r="3.3"/>
      <circle class="st12" cx="49.2" cy="39.7" r="3.3"/>
    </g>
  </g>
  <g class="st11">
    <g>
      <path class="st10" d="M120.1,19.6c8.9-4.5,17.8-4.5,26.8,0-8.9-2.7-17.8-2.7-26.8,0"/>
      <path class="st2" d="M120.1,43.7l9.4-4"/>
      <path class="st7" d="M129.5,39.7c10.7,0,17.4-20.1,26.8-21.4v6.7c-9.4,1.3-16.1,21.4-26.8,21.4v-6.7Z"/>
      <path class="st8" d="M129.5,39.7c10.7,0,17.4-17.4,26.8-18.7v1.3c-9.4,1.3-16.1,21.4-26.8,21.4v-4Z"/>
      <path class="st6" d="M129.5,39.7c10.7,0,17.4,20.1,26.8,21.4v-6.7c-9.4-1.3-16.1-21.4-26.8-21.4v6.7Z"/>
      <path class="st9" d="M129.5,39.7c10.7,0,17.4,17.4,26.8,18.7v-1.3c-9.4-1.3-16.1-21.4-26.8-21.4v4Z"/>
      <path class="st4" d="M129.5,39.7c10.7,0,17.4-18.7,26.8-20.1"/>
      <path class="st5" d="M129.5,39.7c10.7,0,17.4,18.7,26.8,20.1"/>
      <circle class="st12" cx="120.1" cy="43.7" r="3.3"/>
      <circle class="st12" cx="129.5" cy="39.7" r="3.3"/>
    </g>
  </g>
</svg>